<?xml version="1.0" encoding="UTF-8" standalone="no"?>
<!-- Generator: Adobe Illustrator 19.2.1, SVG Export Plug-In . SVG Version: 6.00 Build 0)  -->

<svg
   xmlns:dc="http://purl.org/dc/elements/1.1/"
   xmlns:cc="http://creativecommons.org/ns#"
   xmlns:rdf="http://www.w3.org/1999/02/22-rdf-syntax-ns#"
   xmlns:svg="http://www.w3.org/2000/svg"
   xmlns="http://www.w3.org/2000/svg"
   xmlns:sodipodi="http://sodipodi.sourceforge.net/DTD/sodipodi-0.dtd"
   xmlns:inkscape="http://www.inkscape.org/namespaces/inkscape"
   version="1.1"
   id="Layer_1"
   x="0px"
   y="0px"
   viewBox="0 0 40 40"
   style="enable-background:new 0 0 40 40;"
   xml:space="preserve"
   inkscape:version="0.91 r13725"
   sodipodi:docname="labview.svg"><metadata
     id="metadata56"><rdf:RDF><cc:Work
         rdf:about=""><dc:format>image/svg+xml</dc:format><dc:type
           rdf:resource="http://purl.org/dc/dcmitype/StillImage" /></cc:Work></rdf:RDF></metadata><defs
     id="defs54" /><sodipodi:namedview
     pagecolor="#ffffff"
     bordercolor="#666666"
     borderopacity="1"
     objecttolerance="10"
     gridtolerance="10"
     guidetolerance="10"
     inkscape:pageopacity="0"
     inkscape:pageshadow="2"
     inkscape:window-width="1920"
     inkscape:window-height="1016"
     id="namedview52"
     showgrid="false"
     inkscape:zoom="16.68772"
     inkscape:cx="39.148436"
     inkscape:cy="22.197948"
     inkscape:window-x="1600"
     inkscape:window-y="27"
     inkscape:window-maximized="1"
     inkscape:current-layer="layer1" /><style
     type="text/css"
     id="style3">
	.st0{fill:#655AA7;}
	.st1{fill:#D6E0F2;}
	.st2{fill:#899BCF;}
	.st3{fill:#FFFFFF;}
	.st4{opacity:0.31;}
	.st5{fill:#5F7ABC;}
	.st6{fill:#6685C1;}
</style><g
     style="fill:#adc6cd;fill-opacity:1"
     id="XMLID_5280_"><path
       style="fill:#adc6cd;fill-opacity:1"
       inkscape:connector-curvature="0"
       d="m 19.5,35 c -5.1,0 -10.2,0 -15.3,0 -0.1,0 -0.3,0.1 -0.4,-0.1 0,-0.2 0,-0.5 0,-0.7 0,-0.1 0.1,0 0.2,0 0.3,0 0.6,0 1,0 0.2,0 0.2,0 0.2,-0.2 0,-0.7 0,-1.4 0,-2 0,-0.2 -0.1,-0.2 -0.2,-0.2 -0.3,0 -0.6,0 -1,0 -0.2,0 -0.3,0 -0.3,-0.2 0,-0.1 0,-0.1 0,-0.2 0,-7.8 0,-15.5 0,-23.3 0,-0.3 0.1,-0.5 0.4,-0.4 0.3,0 0.5,0 0.8,0 0.2,0 0.3,-0.1 0.3,-0.3 0,-0.7 0,-1.3 0,-2 0,-0.2 -0.1,-0.3 -0.3,-0.3 -0.3,0 -0.6,0 -0.9,0 -0.2,0 -0.3,0 -0.3,-0.2 0,-0.6 0,-0.6 0.6,-0.6 10.1,0 20.2,0 30.3,0 0.1,0 0.4,-0.1 0.4,0.1 0.1,0.2 0,0.5 0,0.7 0,0.1 -0.1,0.1 -0.2,0.1 -0.4,0 -0.7,0 -1.1,0 -0.2,0 -0.3,0 -0.3,0.2 0,0.7 0,1.4 0,2 0,0.2 0.1,0.2 0.2,0.2 0.4,0 0.7,0 1.1,0 0.2,0 0.3,0.1 0.2,0.2 0,0.1 0,0.1 0,0.2 0,7.8 0,15.5 0,23.3 0,0.3 -0.1,0.4 -0.4,0.4 -0.4,0 -0.9,-0.2 -1.1,0.1 -0.2,0.2 -0.1,0.7 -0.1,1.1 0,0.4 0,0.7 0,1.1 0,0.2 0.1,0.3 0.3,0.3 0.3,0 0.7,0 1,0 0.2,0 0.3,0.1 0.3,0.3 0,0.1 0,0.2 0,0.3 0,0.2 0,0.2 -0.2,0.2 -0.1,0 -0.2,0 -0.2,0 C 29.6,35 24.6,35 19.5,35 Z M 19.6,8.6 c -4.6,0 -9.2,0 -13.9,0 -0.3,0 -0.4,0.1 -0.4,0.4 0,7.1 0,14.1 0,21.2 0,0.3 0.1,0.4 0.4,0.4 9.2,0 18.4,0 27.7,0 0.3,0 0.4,-0.1 0.4,-0.4 0,-7.1 0,-14.1 0,-21.2 0,-0.3 -0.1,-0.4 -0.4,-0.4 -4.6,0 -9.2,0 -13.8,0 z m 9.9,25.6 c 0.4,0 0.7,0 1.1,0 0.2,0 0.3,-0.1 0.3,-0.3 0,-0.7 0,-1.4 0,-2.1 0,-0.2 0,-0.2 -0.2,-0.2 -0.7,0 -1.4,0 -2.2,0 -0.2,0 -0.2,0.1 -0.2,0.2 0,0.7 0,1.4 0,2.2 0,0.2 0.1,0.2 0.2,0.2 0.3,0 0.6,0 1,0 z M 10.4,32.9 c 0,-0.4 0,-0.7 0,-1.1 0,-0.2 0,-0.2 -0.2,-0.2 -0.7,0 -1.4,0 -2.2,0 -0.2,0 -0.2,0.1 -0.2,0.2 0,0.7 0,1.4 0,2.1 0,0.2 0.1,0.3 0.3,0.2 0.7,0 1.4,0 2.1,0 0.2,0 0.3,-0.1 0.2,-0.3 0,-0.2 0,-0.5 0,-0.9 z M 29.5,7.6 c 0.4,0 0.7,0 1.1,0 0.2,0 0.3,-0.1 0.3,-0.3 0,-0.7 0,-1.4 0,-2.1 0,-0.2 -0.1,-0.3 -0.3,-0.3 -0.7,0 -1.4,0 -2.1,0 -0.2,0 -0.2,0.1 -0.2,0.3 0,0.7 0,1.4 0,2.1 0,0.2 0.1,0.3 0.3,0.2 0.2,0.1 0.6,0.1 0.9,0.1 z m -5.1,0 c 0.3,0 0.7,0 1,0 0.2,0 0.3,0 0.3,-0.2 0,-0.7 0,-1.4 0,-2.1 0,-0.2 -0.1,-0.2 -0.2,-0.2 -0.7,0 -1.4,0 -2.1,0 -0.2,0 -0.2,0 -0.2,0.2 0,0.7 0,1.4 0,2.2 0,0.2 0.1,0.2 0.2,0.2 0.3,-0.1 0.7,-0.1 1,-0.1 z M 15.5,6.3 c 0,-0.4 0,-0.7 0,-1.1 0,-0.2 0,-0.3 -0.2,-0.3 -0.7,0 -1.4,0 -2.1,0 C 13,4.9 13,5 13,5.1 c 0,0.7 0,1.4 0,2.1 0,0.2 0,0.2 0.2,0.2 0.7,0 1.4,0 2.2,0 0.2,0 0.2,0 0.2,-0.2 C 15.5,7 15.5,6.7 15.5,6.3 Z m -1.2,25.3 c -0.4,0 -0.7,0 -1.1,0 -0.2,0 -0.3,0.1 -0.3,0.3 0,0.7 0,1.4 0,2.1 0,0.2 0.1,0.3 0.3,0.3 0.7,0 1.4,0 2.1,0 0.2,0 0.3,0 0.3,-0.2 0,-0.7 0,-1.4 0,-2.1 0,-0.2 -0.1,-0.2 -0.2,-0.2 -0.5,-0.2 -0.8,-0.2 -1.1,-0.2 z m 10.1,0 c -0.4,0 -0.7,0 -1.1,0 -0.2,0 -0.2,0 -0.2,0.2 0,0.7 0,1.4 0,2.2 0,0.2 0,0.2 0.2,0.2 0.7,0 1.4,0 2.2,0 0.2,0 0.2,-0.1 0.2,-0.2 0,-0.7 0,-1.4 0,-2.2 0,-0.2 -0.1,-0.2 -0.2,-0.2 -0.4,0 -0.7,0 -1.1,0 z M 9.1,7.6 c 0.4,0 0.7,0 1.1,0 0.2,0 0.2,-0.1 0.2,-0.2 0,-0.7 0,-1.4 0,-2.1 C 10.4,5.1 10.3,5.1 10.2,5.1 9.5,5 8.8,5 8.1,5 7.9,5 7.8,5.1 7.8,5.3 c 0,0.7 0,1.4 0,2.1 0,0.2 0.1,0.3 0.3,0.3 0.4,-0.1 0.7,-0.1 1,-0.1 z M 18,6.3 c 0,0.4 0,0.7 0,1.1 0,0.2 0,0.2 0.2,0.2 0.7,0 1.4,0 2.1,0 0.2,0 0.2,-0.1 0.2,-0.2 0,-0.7 0,-1.4 0,-2.1 0,-0.2 0,-0.2 -0.2,-0.2 -0.7,0 -1.4,0 -2.1,0 C 18.1,5 18,5.1 18,5.3 c 0,0.3 0,0.6 0,1 z m 1.3,27.9 c 0.3,0 0.7,0 1,0 0.2,0 0.3,0 0.3,-0.2 0,-0.7 0,-1.4 0,-2.1 0,-0.1 0,-0.2 -0.2,-0.2 -0.7,0 -1.4,0 -2.2,0 -0.2,0 -0.2,0.1 -0.2,0.2 0,0.7 0,1.4 0,2.2 0,0.2 0.1,0.2 0.2,0.2 0.4,-0.1 0.8,-0.1 1.1,-0.1 z"
       class="st1"
       id="XMLID_5281_" /></g><g
     style="fill:#000000;fill-opacity:1"
     id="XMLID_5276_"><path
       style="fill:#000000;fill-opacity:1"
       inkscape:connector-curvature="0"
       d="m 19.6,8.6 c 4.6,0 9.2,0 13.8,0 0.3,0 0.4,0.1 0.4,0.4 0,7.1 0,14.1 0,21.2 0,0.3 -0.1,0.4 -0.4,0.4 -9.2,0 -18.4,0 -27.7,0 -0.3,0 -0.4,-0.1 -0.4,-0.4 0,-7.1 0,-14.1 0,-21.2 0,-0.3 0.1,-0.4 0.4,-0.4 4.7,0 9.3,0 13.9,0 z M 12.7,28.4 C 18.5,25.5 24.3,22.6 30,19.8 29.9,19.7 29.8,19.6 29.7,19.6 24.2,16.8 18.6,14.1 13.1,11.3 c -0.4,-0.2 -0.4,-0.2 -0.4,0.2 0,5.5 0,11 0,16.5 0,0.1 0,0.2 0,0.4 z"
       class="st2"
       id="XMLID_5277_" /></g><g
     id="XMLID_5252_"><path
       style="fill:#ffffff"
       inkscape:connector-curvature="0"
       d="m 12.7,28.4 c 0,-0.2 0,-0.3 0,-0.4 0,-5.5 0,-11 0,-16.5 0,-0.4 0,-0.4 0.4,-0.2 5.5,2.8 11.1,5.5 16.6,8.3 0.1,0.1 0.2,0.1 0.3,0.2 -5.7,2.8 -11.5,5.7 -17.3,8.6 z m 3.5,-7.7 c 0,0 0,0 0,0 0.3,0 0.5,0 0.8,0 0.2,0 0.2,0.1 0.2,0.2 0,0.5 0,1 0,1.5 0,0.2 0,0.3 0.2,0.3 0.5,0 1,0 1.4,0 0.2,0 0.3,-0.1 0.3,-0.3 0,-0.5 0,-0.9 0,-1.4 0,-0.2 0.1,-0.3 0.3,-0.3 0.5,0 1,0 1.4,0 0.2,0 0.3,0 0.3,-0.2 0,-0.5 0,-1 0,-1.5 0,-0.2 -0.1,-0.3 -0.3,-0.3 -0.4,0 -0.9,0 -1.3,0 -0.3,0 -0.4,-0.1 -0.4,-0.4 0,-0.4 0,-0.8 0,-1.3 0,-0.2 0,-0.3 -0.2,-0.3 -0.5,0 -1,0 -1.4,0 -0.2,0 -0.3,0.1 -0.3,0.3 0,0.5 0,0.9 0,1.4 0,0.2 -0.1,0.3 -0.3,0.3 -0.3,0 -0.5,0 -0.8,0 -0.3,0 -0.7,-0.1 -0.9,0.1 -0.2,0.2 -0.1,0.6 -0.1,0.9 0,0.3 -0.2,0.8 0.1,0.9 0.3,0.2 0.7,0.1 1,0.1 z"
       class="st3"
       id="XMLID_5253_" /></g><g
     id="XMLID_5250_"><path
       style="fill:#899bcf"
       inkscape:connector-curvature="0"
       d="m 16.2,20.7 c -0.3,0 -0.7,0.1 -0.9,0 -0.2,-0.2 -0.1,-0.6 -0.1,-0.9 0,-0.3 -0.1,-0.7 0.1,-0.9 0.2,-0.2 0.6,0 0.9,-0.1 0.3,0 0.6,0 0.8,0 0.2,0 0.3,-0.1 0.3,-0.3 0,-0.5 0,-0.9 0,-1.4 0,-0.2 0,-0.3 0.3,-0.3 0.5,0 1,0 1.4,0 0.2,0 0.3,0.1 0.2,0.3 0,0.4 0,0.8 0,1.3 0,0.3 0.1,0.4 0.4,0.4 0.4,0 0.9,0 1.3,0 0.2,0 0.3,0 0.3,0.3 0,0.5 0,1 0,1.5 0,0.2 -0.1,0.2 -0.3,0.2 -0.5,0 -1,0 -1.4,0 -0.2,0 -0.3,0.1 -0.3,0.3 0,0.5 0,0.9 0,1.4 0,0.2 -0.1,0.3 -0.3,0.3 -0.5,0 -1,0 -1.4,0 -0.2,0 -0.3,-0.1 -0.2,-0.3 0,-0.5 0,-1 0,-1.5 0,-0.2 0,-0.2 -0.2,-0.2 -0.3,-0.1 -0.6,-0.1 -0.9,-0.1 0,0 0,0 0,0 z"
       class="st2"
       id="XMLID_5251_" /></g><path
     id="XMLID_5247_"
     class="st1"
     d="m 34.3,29.2 c -2,0 -2.8,-4 -3.9,-10.4 -0.6,-3.7 -1.6,-9.3 -2.7,-9.5 -1.2,0.2 -2.1,5.8 -2.7,9.5 -1.1,6.5 -1.9,10.4 -3.9,10.4 -2,0 -2.8,-4 -3.9,-10.4 C 16.6,15 15.6,9.3 14.4,9.3 13.2,9.3 12.2,15 11.6,18.8 10.5,25.3 9.7,29.2 7.7,29.2 5.7,29.2 4.9,25.2 3.8,18.8 3.2,15 2.2,9.2 1,9.2 L 1,8.1 c 2,0 2.8,4 3.9,10.4 0.6,3.8 1.6,9.5 2.8,9.5 1.2,0 2.2,-5.7 2.8,-9.5 1.1,-6.5 1.9,-10.4 3.9,-10.4 2,0 2.8,4 3.9,10.4 0.6,3.8 1.6,9.5 2.8,9.5 1.2,0 2.2,-5.7 2.8,-9.5 C 25,12.2 25.7,8.3 27.6,8.1 l 0,0 0.1,0 c 1.9,0.2 2.7,4.1 3.7,10.4 0.6,3.8 1.6,9.5 2.8,9.5 0.2,0 0.8,-0.2 1.5,-3 l 1.1,0.3 c -0.4,1.8 -1.1,3.9 -2.5,3.9 z"
     style="fill:#00e516;fill-opacity:1;fill-rule:evenodd;stroke-width:2;stroke-miterlimit:4;stroke-dasharray:none"
     inkscape:connector-curvature="0" /><g
     style="fill:#fe0000;fill-opacity:1"
     id="XMLID_5233_"
     transform="translate(-0.0599243,-1.7603028)"><path
       inkscape:connector-curvature="0"
       style="fill:#fe0000;fill-opacity:1"
       d="m 12.7,17.3 -10.8,0 c -0.3,0 -0.5,-0.2 -0.5,-0.5 0,-0.3 0.2,-0.5 0.5,-0.5 l 10.8,0 c 0.3,0 0.5,0.2 0.5,0.5 0,0.3 -0.2,0.5 -0.5,0.5 z"
       class="st5"
       id="XMLID_5245_" /></g><g
     style="fill:#0072e5;fill-opacity:1"
     id="XMLID_4788_"
     transform="translate(0,0.59924304)"><path
       inkscape:connector-curvature="0"
       style="fill:#0072e5;fill-opacity:1"
       d="m 12.7,23.6 -10.8,0 c -0.3,0 -0.5,-0.2 -0.5,-0.5 0,-0.3 0.2,-0.5 0.5,-0.5 l 10.8,0 c 0.3,0 0.5,0.2 0.5,0.5 0,0.3 -0.2,0.5 -0.5,0.5 z"
       class="st6"
       id="XMLID_4789_" /></g><g
     style="fill:#fe0001;fill-opacity:1"
     id="XMLID_4786_"><path
       inkscape:connector-curvature="0"
       style="fill:#fe0001;fill-opacity:1"
       d="m 37.6,20.3 -10,0 c -0.3,0 -0.5,-0.2 -0.5,-0.5 0,-0.3 0.2,-0.5 0.5,-0.5 l 10,0 c 0.3,0 0.5,0.2 0.5,0.5 0,0.3 -0.2,0.5 -0.5,0.5 z"
       class="st5"
       id="XMLID_4787_" /></g><g
     style="fill:#feed01;fill-opacity:1"
     id="XMLID_4784_"><path
       inkscape:connector-curvature="0"
       style="fill:#feed01;fill-opacity:1"
       d="m 12.7,28.4 c 0,0 -0.4,-17.4 0,-17.2 0.4,0.1 17.5,8.6 17.5,8.6 l -17.5,8.6 z"
       class="st3"
       id="XMLID_4785_" /></g><g
     id="XMLID_4782_"><path
       inkscape:connector-curvature="0"
       style="fill:#000000;fill-opacity:1"
       d="m 20.8,20.8 -5.3,0 c -0.2,0 -0.4,-0.2 -0.4,-0.4 l 0,-1.4 c 0,-0.2 0.2,-0.4 0.4,-0.4 l 5.3,0 c 0.2,0 0.4,0.2 0.4,0.4 l 0,1.3 c 0,0.3 -0.1,0.5 -0.4,0.5 z"
       class="st2"
       id="XMLID_4783_" /></g><g
     style="fill:#000000;fill-opacity:1"
     id="XMLID_4780_"><path
       inkscape:connector-curvature="0"
       style="fill:#000000;fill-opacity:1"
       d="m 17.2,22.4 0,-5.3 c 0,-0.2 0.2,-0.4 0.4,-0.4 l 1.3,0 c 0.2,0 0.4,0.2 0.4,0.4 l 0,5.3 c 0,0.2 -0.2,0.4 -0.4,0.4 l -1.3,0 c -0.2,0 -0.4,-0.2 -0.4,-0.4 z"
       class="st2"
       id="XMLID_4781_" /></g><g
     inkscape:groupmode="layer"
     id="layer1"
     inkscape:label="Layer 1"
     style="display:inline" /></svg>