<?xml version="1.0" standalone="no"?>
<!DOCTYPE svg PUBLIC "-//W3C//DTD SVG 20010904//EN"
 "http://www.w3.org/TR/2001/REC-SVG-20010904/DTD/svg10.dtd">
<svg version="1.0" xmlns="http://www.w3.org/2000/svg"
 width="500.000000pt" height="500.000000pt" viewBox="0 0 500.000000 500.000000"
 preserveAspectRatio="xMidYMid meet">
<metadata>
Created by potrace 1.11, written by Peter Selinger 2001-2013
</metadata>
<g transform="translate(0.000000,500.000000) scale(0.100000,-0.100000)"
fill="#000000" stroke="none">
<path d="M2296 4722 c-3 -5 -5 -832 -5 -1840 l0 -1831 223 0 223 0 0 930 0
931 44 45 c24 25 62 58 83 74 21 16 35 29 31 29 -4 0 9 11 29 25 20 14 40 25
43 25 3 0 13 8 22 18 9 9 27 23 41 30 14 7 39 21 56 31 17 10 45 22 62 26 18
3 32 11 32 15 0 5 7 7 15 4 8 -4 15 -1 15 6 0 6 4 9 9 6 4 -3 23 -1 42 5 44
14 280 19 297 6 6 -5 12 -7 12 -3 0 6 80 -23 130 -46 43 -21 129 -92 130 -108
0 -8 9 -21 20 -28 11 -7 20 -21 20 -32 0 -11 5 -20 10 -20 6 0 10 -6 10 -14 0
-8 6 -21 13 -28 6 -7 13 -20 14 -28 1 -8 4 -26 7 -40 3 -14 9 -41 13 -60 7
-36 9 -45 12 -57 1 -5 2 -398 3 -875 l0 -867 223 0 224 0 1 192 c0 106 1 199
1 207 0 8 -1 139 -1 290 -1 151 -1 302 0 335 0 33 -1 229 -2 436 -2 281 -6
380 -15 391 -7 8 -10 17 -7 20 6 7 -28 139 -49 191 -9 20 -14 37 -12 37 2 0
-12 27 -31 61 -18 33 -34 64 -34 68 0 9 -141 164 -154 170 -5 2 -17 12 -27 22
-11 11 -23 19 -29 19 -5 0 -10 5 -10 11 0 5 -4 8 -9 5 -5 -3 -14 1 -21 9 -7 8
-20 15 -30 15 -10 0 -23 7 -30 15 -7 9 -15 13 -18 11 -2 -3 -22 4 -43 15 -21
10 -42 18 -46 17 -5 -1 -26 4 -48 11 -57 17 -316 25 -395 11 -36 -6 -72 -12
-80 -14 -8 -1 -22 -5 -30 -8 -8 -3 -35 -11 -60 -18 -25 -7 -63 -22 -85 -33
-22 -12 -42 -21 -45 -22 -11 -1 -105 -60 -108 -67 -2 -4 -10 -8 -18 -8 -8 0
-14 -5 -14 -12 0 -6 -3 -9 -6 -5 -3 3 -17 -6 -30 -20 -13 -14 -24 -23 -24 -19
0 4 -18 -11 -40 -33 -22 -22 -40 -38 -40 -35 0 2 -14 -11 -31 -31 -18 -20 -34
-33 -37 -31 -3 3 -5 336 -5 741 l0 735 -218 0 c-120 0 -220 -4 -223 -8z"/>
<path d="M1275 4690 c-51 -10 -105 -32 -105 -43 0 -4 -5 -5 -11 -2 -6 4 -13
-2 -16 -14 -3 -12 -12 -21 -19 -21 -8 0 -14 -7 -14 -15 0 -8 -6 -15 -13 -15
-16 0 -55 -79 -64 -130 -10 -53 -6 -142 8 -175 7 -17 12 -33 11 -37 -1 -5 2
-8 8 -8 5 0 10 -6 10 -13 0 -15 80 -93 120 -118 14 -8 32 -15 40 -14 8 0 18
-3 21 -8 7 -10 114 -13 157 -4 39 9 97 39 123 64 10 10 24 23 31 30 83 77 110
206 67 326 -49 138 -206 226 -354 197z"/>
<path d="M1123 3440 c-1 -77 -4 -144 -8 -150 -3 -5 -3 -10 2 -10 9 0 8 -392
-1 -415 -3 -8 -2 -15 2 -15 4 0 7 -68 7 -150 0 -83 -4 -150 -8 -150 -5 0 -5
-5 -1 -11 6 -10 9 -407 4 -434 -1 -5 -2 -14 0 -20 2 -14 2 -608 0 -620 -1 -5
-1 -14 0 -20 5 -27 1 -495 -5 -504 -3 -6 -2 -11 2 -11 9 0 8 -31 -2 -110 -3
-25 -7 -61 -8 -80 -2 -20 -6 -40 -9 -45 -3 -6 -11 -28 -18 -50 -14 -44 -88
-125 -114 -125 -9 0 -16 -4 -16 -9 0 -5 -17 -12 -37 -16 -21 -5 -45 -10 -53
-12 -8 -2 -67 -5 -131 -6 -93 -2 -119 -5 -132 -19 -16 -16 -19 -39 -30 -243
-2 -28 1 -31 48 -43 96 -26 171 -34 292 -28 102 4 138 10 218 37 52 18 95 36
95 41 0 5 5 6 10 3 6 -3 10 -1 10 5 0 6 5 8 10 5 6 -3 10 -2 10 3 0 5 18 17
39 28 22 10 38 21 36 24 -2 3 9 14 24 24 15 11 38 35 52 54 13 20 29 41 35 47
12 12 50 82 54 100 1 6 6 21 11 33 5 13 7 28 3 33 -3 5 -1 9 4 9 8 0 19 38 30
110 2 14 4 666 5 1450 l2 1425 -216 2 -216 1 0 -138z"/>
</g>
</svg>
