<svg width="375" height="375" xmlns="http://www.w3.org/2000/svg">

 <g>
  <title>background</title>
  <rect fill="none" id="canvas_background" height="377" width="377" y="-1" x="-1"/>
 </g>
 <g>
  <title>Layer 1</title>
  <g id="layer1">
   <g fill="black" fill-rule="nonzero" stroke-miterlimit="4" id="g3771" transform="matrix(2.914897,0,0,2.914897,-717.5904,128.5015) ">
    <g fill="black" id="g3773">
     <path fill="black" id="path3775" d="m344.087617,-38.889652c-24.602,0 -29.217,35.041 -15.377,35.041c13.838,0 39.98,-35.041 15.377,-35.041z"/>
     <path fill="black" id="path3777" d="m303.236617,-8.190652c7.369,0.45 15.454,-28.122 1.604,-26.325c-13.845,1.797 -8.976,25.875 -1.604,26.325z"/>
     <path fill="black" id="path3779" d="m269.464617,9.563348c5.241,-2.307 0.675,-24.872 -8.237,-18.718c-8.908,6.155 2.996,21.024 8.237,18.718z"/>
     <path fill="black" id="path3781" d="m284.231617,-2.247652c6.239,-1.272 6.581,-26.864 -4.545,-22.273c-11.128,4.592 -1.689,23.547 4.545,22.273l0,0z"/>
     <path fill="black" id="path3783" d="m316.810617,55.023348c1.107,8.454 -6.202,12.629 -13.36,7.179c-22.787,-17.349 37.729,-26.004 33.74,-49.706c-3.311,-19.674 -63.676,-13.617 -70.55,17.167c-4.653,20.821 19.153,49.707 43.993,49.707c12.22,0 26.315,-11.034 28.952,-25.012c2.014,-10.659 -23.699,-6.388 -22.775,0.665l0,0z"/>
    </g>
   </g>
  </g>
 </g>
</svg>